<?xml version="1.0" encoding="iso-8859-1"?>
<!-- Generator: Adobe Illustrator 19.0.1, SVG Export Plug-In . SVG Version: 6.00 Build 0)  -->
<svg version="1.1" xmlns="http://www.w3.org/2000/svg" xmlns:xlink="http://www.w3.org/1999/xlink" x="0px" y="0px"
	 viewBox="0 0 128 128" style="enable-background:new 0 0 128 128;" xml:space="preserve">
<g id="_x31_0">
	<path id="icon_8_" style="fill:#231F20;" d="M116.651,72.465c-0.527,16.279-13.302,29.023-29.116,29.023
		c-5.178,0-10.264-1.395-14.698-3.969c-1.457-0.837-2.853-1.83-4.124-2.915c0.682,10.45,3.38,24.465,12.155,33.395H47.132
		c8.775-8.961,11.504-22.977,12.186-33.426c-1.302,1.116-2.667,2.078-4.155,2.946c-4.434,2.574-9.519,3.969-14.698,3.969
		c-15.783,0-28.589-12.744-29.116-29.023c-0.279-8.155,2.326-16.434,7.752-24.62C23.38,41.426,64,0,64,0s40.62,41.426,44.899,47.845
		C114.325,56.031,116.93,64.31,116.651,72.465z"/>
</g>
<g id="Layer_1">
</g>
</svg>
