<?xml version="1.0" encoding="iso-8859-1"?>
<!-- Generator: Adobe Illustrator 19.0.1, SVG Export Plug-In . SVG Version: 6.00 Build 0)  -->
<svg version="1.1" xmlns="http://www.w3.org/2000/svg" xmlns:xlink="http://www.w3.org/1999/xlink" x="0px" y="0px"
	 viewBox="0 0 128 128" style="enable-background:new 0 0 128 128;" xml:space="preserve">
<g id="_x32_">
	<path id="icon_1_" style="fill:#231F20;" d="M102.264,128H25.736c-3.207,0-5.815-2.609-5.815-5.815V5.815
		C19.921,2.609,22.53,0,25.736,0h76.527c3.207,0,5.815,2.609,5.815,5.815v116.369C108.079,125.391,105.47,128,102.264,128z
		 M25.736,3.877c-1.069,0-1.938,0.87-1.938,1.938v116.369c0,1.069,0.87,1.938,1.938,1.938h76.527c1.069,0,1.938-0.87,1.938-1.938
		V5.815c0-1.069-0.87-1.938-1.938-1.938H25.736z M84.455,52.595C82.505,49.671,64,30.798,64,30.798S45.495,49.671,43.546,52.595
		c-2.472,3.729-3.659,7.501-3.531,11.216c0.24,7.416,6.074,13.222,13.264,13.222c2.359,0,4.676-0.636,6.696-1.808
		c0.678-0.395,1.3-0.833,1.893-1.342c-0.311,4.76-1.554,11.145-5.552,15.228h15.369c-3.998-4.068-5.227-10.453-5.537-15.214
		c0.579,0.494,1.215,0.946,1.879,1.328c2.02,1.172,4.337,1.808,6.696,1.808c7.204,0,13.024-5.806,13.264-13.222
		C88.113,60.096,86.927,56.324,84.455,52.595z M42.839,16.27c-0.612-0.918-6.422-6.843-6.422-6.843s-5.81,5.925-6.422,6.843
		c-0.776,1.171-1.149,2.355-1.109,3.521c0.075,2.328,1.907,4.151,4.164,4.151c0.741,0,1.468-0.2,2.102-0.568
		c0.213-0.124,0.408-0.262,0.594-0.421c-0.098,1.495-0.488,3.499-1.743,4.781h4.825c-1.255-1.277-1.641-3.282-1.738-4.776
		c0.182,0.155,0.381,0.297,0.59,0.417c0.634,0.368,1.361,0.568,2.102,0.568c2.262,0,4.089-1.823,4.164-4.151
		C43.987,18.625,43.615,17.441,42.839,16.27z M85.161,112.834c0.612,0.918,6.422,6.843,6.422,6.843s5.81-5.925,6.422-6.843
		c0.776-1.171,1.149-2.355,1.109-3.521c-0.075-2.328-1.907-4.151-4.164-4.151c-0.741,0-1.468,0.2-2.102,0.568
		c-0.213,0.124-0.408,0.262-0.594,0.421c0.098-1.495,0.488-3.499,1.743-4.781H89.17c1.255,1.277,1.641,3.282,1.738,4.776
		c-0.182-0.155-0.381-0.297-0.59-0.417c-0.634-0.368-1.361-0.568-2.102-0.568c-2.262,0-4.089,1.823-4.164,4.151
		C84.013,110.479,84.385,111.663,85.161,112.834z"/>
</g>
<g id="Layer_1">
</g>
</svg>
