<?xml version="1.0" encoding="iso-8859-1"?>
<!-- Generator: Adobe Illustrator 19.0.1, SVG Export Plug-In . SVG Version: 6.00 Build 0)  -->
<svg version="1.1" xmlns="http://www.w3.org/2000/svg" xmlns:xlink="http://www.w3.org/1999/xlink" x="0px" y="0px"
	 viewBox="0 0 128 128" style="enable-background:new 0 0 128 128;" xml:space="preserve">
<g id="_x33_">
	<path id="icon_2_" style="fill:#231F20;" d="M89.092,68.32c0,6.757-5.481,12.239-12.239,12.239c-4.581,0-8.585-2.525-10.678-6.262
		c-0.009-0.055-0.009-0.101-0.009-0.147c-0.018,0.009-0.046,0.018-0.064,0.018c0.028,0.046,0.046,0.083,0.073,0.129
		c0.211,5.022,1.359,12.349,5.83,16.903H55.994c4.48-4.563,5.637-11.917,5.849-16.94c0.064-0.101,0.119-0.211,0.174-0.321
		c-0.055-0.018-0.11-0.028-0.165-0.046c0,0.119,0,0.239-0.009,0.367c-2.084,3.755-6.096,6.298-10.696,6.298
		c-6.757,0-12.239-5.481-12.239-12.239c0-6.757,5.481-12.239,12.239-12.239c1.093,0,2.148,0.147,3.158,0.413
		c-1.598-2.057-2.543-4.646-2.543-7.455C51.761,42.282,57.242,36.8,64,36.8s12.239,5.481,12.239,12.239
		c0,2.809-0.946,5.399-2.543,7.455c1.01-0.266,2.066-0.413,3.158-0.413C83.611,56.081,89.092,61.562,89.092,68.32z M40.536,15.491
		c-0.35,0-0.688,0.047-1.012,0.132c0.512-0.659,0.815-1.489,0.815-2.389c0-2.165-1.756-3.922-3.922-3.922
		c-2.165,0-3.922,1.756-3.922,3.922c0,0.9,0.303,1.73,0.815,2.389c-0.324-0.085-0.662-0.132-1.012-0.132
		c-2.165,0-3.922,1.756-3.922,3.922s1.756,3.922,3.922,3.922c1.474,0,2.76-0.815,3.427-2.018c0.003-0.041,0.003-0.079,0.003-0.118
		c0.018,0.006,0.035,0.009,0.053,0.015c-0.018,0.035-0.035,0.071-0.056,0.103c-0.068,1.609-0.438,3.966-1.874,5.428h5.131
		c-1.433-1.459-1.8-3.807-1.868-5.416c-0.009-0.015-0.015-0.026-0.024-0.041c0.006,0,0.015-0.003,0.021-0.006
		c0,0.015,0,0.029,0.003,0.047c0.671,1.197,1.953,2.006,3.421,2.006c2.165,0,3.922-1.756,3.922-3.922S42.701,15.491,40.536,15.491z
		 M87.464,114.041c0.35,0,0.688-0.047,1.012-0.132c-0.512,0.659-0.815,1.489-0.815,2.389c0,2.165,1.756,3.922,3.922,3.922
		s3.922-1.756,3.922-3.922c0-0.9-0.303-1.73-0.815-2.389c0.324,0.085,0.662,0.132,1.012,0.132c2.165,0,3.922-1.756,3.922-3.922
		s-1.756-3.922-3.922-3.922c-1.474,0-2.76,0.815-3.427,2.018c-0.003,0.041-0.003,0.079-0.003,0.118
		c-0.018-0.006-0.035-0.009-0.053-0.015c0.018-0.035,0.035-0.071,0.056-0.103c0.068-1.609,0.438-3.966,1.874-5.428h-5.131
		c1.433,1.459,1.8,3.807,1.868,5.416c0.009,0.015,0.015,0.026,0.024,0.041c-0.006,0-0.015,0.003-0.021,0.006
		c0-0.015,0-0.029-0.003-0.047c-0.671-1.197-1.953-2.006-3.421-2.006c-2.165,0-3.922,1.756-3.922,3.922
		S85.299,114.041,87.464,114.041z M108.079,122.185V5.815c0-3.207-2.609-5.815-5.815-5.815H25.737c-3.207,0-5.815,2.609-5.815,5.815
		v116.369c0,3.207,2.609,5.815,5.815,5.815h76.526C105.47,128,108.079,125.391,108.079,122.185z M102.263,3.877
		c1.069,0,1.938,0.87,1.938,1.938v116.369c0,1.069-0.87,1.938-1.938,1.938H25.737c-1.069,0-1.938-0.87-1.938-1.938V5.815
		c0-1.069,0.87-1.938,1.938-1.938H102.263z"/>
</g>
<g id="Layer_1">
</g>
</svg>
