<?xml version="1.0" encoding="iso-8859-1"?>
<!-- Generator: Adobe Illustrator 19.0.1, SVG Export Plug-In . SVG Version: 6.00 Build 0)  -->
<svg version="1.1" xmlns="http://www.w3.org/2000/svg" xmlns:xlink="http://www.w3.org/1999/xlink" x="0px" y="0px"
	 viewBox="0 0 128 128" style="enable-background:new 0 0 128 128;" xml:space="preserve">
<g id="_x35_">
	<path id="icon_4_" style="fill:#231F20;" d="M50.145,66.817v2.585h8.414v-2.585H50.145z M96.633,108.523
		c-1.654-1.848-3.657-4.381-5.015-7.173c-2.727,5.583-7.935,10.158-7.935,10.158s1.318,1.137,2.985,2.985
		c1.654,1.835,3.657,4.381,5.015,7.16c2.714-5.57,7.935-10.145,7.935-10.145S98.301,110.359,96.633,108.523z M39.121,15.044
		c-1.654-1.848-3.657-4.381-5.015-7.173c-2.727,5.583-7.948,10.158-7.948,10.158s1.331,1.137,2.985,2.985
		c1.667,1.835,3.67,4.381,5.027,7.16c2.714-5.57,7.935-10.145,7.935-10.145S40.788,16.879,39.121,15.044z M96.633,108.523
		c-1.654-1.848-3.657-4.381-5.015-7.173c-2.727,5.583-7.935,10.158-7.935,10.158s1.318,1.137,2.985,2.985
		c1.654,1.835,3.657,4.381,5.015,7.16c2.714-5.57,7.935-10.145,7.935-10.145S98.301,110.359,96.633,108.523z M50.145,66.817v2.585
		h8.414v-2.585H50.145z M39.121,15.044c-1.654-1.848-3.657-4.381-5.015-7.173c-2.727,5.583-7.948,10.158-7.948,10.158
		s1.331,1.137,2.985,2.985c1.667,1.835,3.67,4.381,5.027,7.16c2.714-5.57,7.935-10.145,7.935-10.145S40.788,16.879,39.121,15.044z
		 M39.121,15.044c-1.654-1.848-3.657-4.381-5.015-7.173c-2.727,5.583-7.948,10.158-7.948,10.158s1.331,1.137,2.985,2.985
		c1.667,1.835,3.67,4.381,5.027,7.16c2.714-5.57,7.935-10.145,7.935-10.145S40.788,16.879,39.121,15.044z M50.145,66.817v2.585
		h8.414v-2.585H50.145z M96.633,108.523c-1.654-1.848-3.657-4.381-5.015-7.173c-2.727,5.583-7.935,10.158-7.935,10.158
		s1.318,1.137,2.985,2.985c1.654,1.835,3.657,4.381,5.015,7.16c2.714-5.57,7.935-10.145,7.935-10.145S98.301,110.359,96.633,108.523
		z M96.633,108.523c-1.654-1.848-3.657-4.381-5.015-7.173c-2.727,5.583-7.935,10.158-7.935,10.158s1.318,1.137,2.985,2.985
		c1.654,1.835,3.657,4.381,5.015,7.16c2.714-5.57,7.935-10.145,7.935-10.145S98.301,110.359,96.633,108.523z M50.145,66.817v2.585
		h8.414v-2.585H50.145z M39.121,15.044c-1.654-1.848-3.657-4.381-5.015-7.173c-2.727,5.583-7.948,10.158-7.948,10.158
		s1.331,1.137,2.985,2.985c1.667,1.835,3.67,4.381,5.027,7.16c2.714-5.57,7.935-10.145,7.935-10.145S40.788,16.879,39.121,15.044z
		 M39.121,15.044c-1.654-1.848-3.657-4.381-5.015-7.173c-2.727,5.583-7.948,10.158-7.948,10.158s1.331,1.137,2.985,2.985
		c1.667,1.835,3.67,4.381,5.027,7.16c2.714-5.57,7.935-10.145,7.935-10.145S40.788,16.879,39.121,15.044z M50.145,66.817v2.585
		h8.414v-2.585H50.145z M96.633,108.523c-1.654-1.848-3.657-4.381-5.015-7.173c-2.727,5.583-7.935,10.158-7.935,10.158
		s1.318,1.137,2.985,2.985c1.654,1.835,3.657,4.381,5.015,7.16c2.714-5.57,7.935-10.145,7.935-10.145S98.301,110.359,96.633,108.523
		z M96.633,108.523c-1.654-1.848-3.657-4.381-5.015-7.173c-2.727,5.583-7.935,10.158-7.935,10.158s1.318,1.137,2.985,2.985
		c1.654,1.835,3.657,4.381,5.015,7.16c2.714-5.57,7.935-10.145,7.935-10.145S98.301,110.359,96.633,108.523z M50.145,66.817v2.585
		h8.414v-2.585H50.145z M39.121,15.044c-1.654-1.848-3.657-4.381-5.015-7.173c-2.727,5.583-7.948,10.158-7.948,10.158
		s1.331,1.137,2.985,2.985c1.667,1.835,3.67,4.381,5.027,7.16c2.714-5.57,7.935-10.145,7.935-10.145S40.788,16.879,39.121,15.044z
		 M39.121,15.044c-1.654-1.848-3.657-4.381-5.015-7.173c-2.727,5.583-7.948,10.158-7.948,10.158s1.331,1.137,2.985,2.985
		c1.667,1.835,3.67,4.381,5.027,7.16c2.714-5.57,7.935-10.145,7.935-10.145S40.788,16.879,39.121,15.044z M50.145,66.817v2.585
		h8.414v-2.585H50.145z M96.633,108.523c-1.654-1.848-3.657-4.381-5.015-7.173c-2.727,5.583-7.935,10.158-7.935,10.158
		s1.318,1.137,2.985,2.985c1.654,1.835,3.657,4.381,5.015,7.16c2.714-5.57,7.935-10.145,7.935-10.145S98.301,110.359,96.633,108.523
		z M96.633,108.523c-1.654-1.848-3.657-4.381-5.015-7.173c-2.727,5.583-7.935,10.158-7.935,10.158s1.318,1.137,2.985,2.985
		c1.654,1.835,3.657,4.381,5.015,7.16c2.714-5.57,7.935-10.145,7.935-10.145S98.301,110.359,96.633,108.523z M50.145,66.817v2.585
		h8.414v-2.585H50.145z M39.121,15.044c-1.654-1.848-3.657-4.381-5.015-7.173c-2.727,5.583-7.948,10.158-7.948,10.158
		s1.331,1.137,2.985,2.985c1.667,1.835,3.67,4.381,5.027,7.16c2.714-5.57,7.935-10.145,7.935-10.145S40.788,16.879,39.121,15.044z
		 M39.121,15.044c-1.654-1.848-3.657-4.381-5.015-7.173c-2.727,5.583-7.948,10.158-7.948,10.158s1.331,1.137,2.985,2.985
		c1.667,1.835,3.67,4.381,5.027,7.16c2.714-5.57,7.935-10.145,7.935-10.145S40.788,16.879,39.121,15.044z M50.145,66.817v2.585
		h8.414v-2.585H50.145z M96.633,108.523c-1.654-1.848-3.657-4.381-5.015-7.173c-2.727,5.583-7.935,10.158-7.935,10.158
		s1.318,1.137,2.985,2.985c1.654,1.835,3.657,4.381,5.015,7.16c2.714-5.57,7.935-10.145,7.935-10.145S98.301,110.359,96.633,108.523
		z M96.633,108.523c-1.654-1.848-3.657-4.381-5.015-7.173c-2.727,5.583-7.935,10.158-7.935,10.158s1.318,1.137,2.985,2.985
		c1.654,1.835,3.657,4.381,5.015,7.16c2.714-5.57,7.935-10.145,7.935-10.145S98.301,110.359,96.633,108.523z M50.145,66.817v2.585
		h8.414v-2.585H50.145z M39.121,15.044c-1.654-1.848-3.657-4.381-5.015-7.173c-2.727,5.583-7.948,10.158-7.948,10.158
		s1.331,1.137,2.985,2.985c1.667,1.835,3.67,4.381,5.027,7.16c2.714-5.57,7.935-10.145,7.935-10.145S40.788,16.879,39.121,15.044z
		 M39.121,15.044c-1.654-1.848-3.657-4.381-5.015-7.173c-2.727,5.583-7.948,10.158-7.948,10.158s1.331,1.137,2.985,2.985
		c1.667,1.835,3.67,4.381,5.027,7.16c2.714-5.57,7.935-10.145,7.935-10.145S40.788,16.879,39.121,15.044z M50.145,66.817v2.585
		h8.414v-2.585H50.145z M96.633,108.523c-1.654-1.848-3.657-4.381-5.015-7.173c-2.727,5.583-7.935,10.158-7.935,10.158
		s1.318,1.137,2.985,2.985c1.654,1.835,3.657,4.381,5.015,7.16c2.714-5.57,7.935-10.145,7.935-10.145S98.301,110.359,96.633,108.523
		z M96.633,108.523c-1.654-1.848-3.657-4.381-5.015-7.173c-2.727,5.583-7.935,10.158-7.935,10.158s1.318,1.137,2.985,2.985
		c1.654,1.835,3.657,4.381,5.015,7.16c2.714-5.57,7.935-10.145,7.935-10.145S98.301,110.359,96.633,108.523z M50.145,69.402h8.414
		v-2.585h-8.414V69.402z M39.121,15.044c-1.654-1.848-3.657-4.381-5.015-7.173c-2.727,5.583-7.948,10.158-7.948,10.158
		s1.331,1.137,2.985,2.985c1.667,1.835,3.67,4.381,5.027,7.16c2.714-5.57,7.935-10.145,7.935-10.145S40.788,16.879,39.121,15.044z
		 M102.268,0H25.732c-3.205,0-5.816,2.611-5.816,5.816v116.368c0,3.205,2.611,5.816,5.816,5.816h76.536
		c3.205,0,5.816-2.611,5.816-5.816V5.816C108.084,2.611,105.473,0,102.268,0z M104.207,122.184c0,1.073-0.879,1.939-1.939,1.939
		H25.732c-1.073,0-1.939-0.866-1.939-1.939V5.816c0-1.073,0.866-1.939,1.939-1.939h76.536c1.06,0,1.939,0.866,1.939,1.939V122.184z
		 M96.633,108.523c-1.654-1.848-3.657-4.381-5.015-7.173c-2.727,5.583-7.935,10.158-7.935,10.158s1.318,1.137,2.985,2.985
		c1.654,1.835,3.657,4.381,5.015,7.16c2.714-5.57,7.935-10.145,7.935-10.145S98.301,110.359,96.633,108.523z M50.145,69.402h8.414
		v-2.585h-8.414V69.402z M39.121,15.044c-1.654-1.848-3.657-4.381-5.015-7.173c-2.727,5.583-7.948,10.158-7.948,10.158
		s1.331,1.137,2.985,2.985c1.667,1.835,3.67,4.381,5.027,7.16c2.714-5.57,7.935-10.145,7.935-10.145S40.788,16.879,39.121,15.044z
		 M39.121,15.044c-1.654-1.848-3.657-4.381-5.015-7.173c-2.727,5.583-7.948,10.158-7.948,10.158s1.331,1.137,2.985,2.985
		c1.667,1.835,3.67,4.381,5.027,7.16c2.714-5.57,7.935-10.145,7.935-10.145S40.788,16.879,39.121,15.044z M50.145,66.817v2.585
		h8.414v-2.585H50.145z M96.633,108.523c-1.654-1.848-3.657-4.381-5.015-7.173c-2.727,5.583-7.935,10.158-7.935,10.158
		s1.318,1.137,2.985,2.985c1.654,1.835,3.657,4.381,5.015,7.16c2.714-5.57,7.935-10.145,7.935-10.145S98.301,110.359,96.633,108.523
		z M96.633,108.523c-1.654-1.848-3.657-4.381-5.015-7.173c-2.727,5.583-7.935,10.158-7.935,10.158s1.318,1.137,2.985,2.985
		c1.654,1.835,3.657,4.381,5.015,7.16c2.714-5.57,7.935-10.145,7.935-10.145S98.301,110.359,96.633,108.523z M50.145,66.817v2.585
		h8.414v-2.585H50.145z M39.121,15.044c-1.654-1.848-3.657-4.381-5.015-7.173c-2.727,5.583-7.948,10.158-7.948,10.158
		s1.331,1.137,2.985,2.985c1.667,1.835,3.67,4.381,5.027,7.16c2.714-5.57,7.935-10.145,7.935-10.145S40.788,16.879,39.121,15.044z
		 M39.121,15.044c-1.654-1.848-3.657-4.381-5.015-7.173c-2.727,5.583-7.948,10.158-7.948,10.158s1.331,1.137,2.985,2.985
		c1.667,1.835,3.67,4.381,5.027,7.16c2.714-5.57,7.935-10.145,7.935-10.145S40.788,16.879,39.121,15.044z M50.145,66.817v2.585
		h8.414v-2.585H50.145z M96.633,108.523c-1.654-1.848-3.657-4.381-5.015-7.173c-2.727,5.583-7.935,10.158-7.935,10.158
		s1.318,1.137,2.985,2.985c1.654,1.835,3.657,4.381,5.015,7.16c2.714-5.57,7.935-10.145,7.935-10.145S98.301,110.359,96.633,108.523
		z M96.633,108.523c-1.654-1.848-3.657-4.381-5.015-7.173c-2.727,5.583-7.935,10.158-7.935,10.158s1.318,1.137,2.985,2.985
		c1.654,1.835,3.657,4.381,5.015,7.16c2.714-5.57,7.935-10.145,7.935-10.145S98.301,110.359,96.633,108.523z M50.145,66.817v2.585
		h8.414v-2.585H50.145z M39.121,15.044c-1.654-1.848-3.657-4.381-5.015-7.173c-2.727,5.583-7.948,10.158-7.948,10.158
		s1.331,1.137,2.985,2.985c1.667,1.835,3.67,4.381,5.027,7.16c2.714-5.57,7.935-10.145,7.935-10.145S40.788,16.879,39.121,15.044z
		 M39.121,15.044c-1.654-1.848-3.657-4.381-5.015-7.173c-2.727,5.583-7.948,10.158-7.948,10.158s1.331,1.137,2.985,2.985
		c1.667,1.835,3.67,4.381,5.027,7.16c2.714-5.57,7.935-10.145,7.935-10.145S40.788,16.879,39.121,15.044z M50.145,66.817v2.585
		h8.414v-2.585H50.145z M96.633,108.523c-1.654-1.848-3.657-4.381-5.015-7.173c-2.727,5.583-7.935,10.158-7.935,10.158
		s1.318,1.137,2.985,2.985c1.654,1.835,3.657,4.381,5.015,7.16c2.714-5.57,7.935-10.145,7.935-10.145S98.301,110.359,96.633,108.523
		z M96.633,108.523c-1.654-1.848-3.657-4.381-5.015-7.173c-2.727,5.583-7.935,10.158-7.935,10.158s1.318,1.137,2.985,2.985
		c1.654,1.835,3.657,4.381,5.015,7.16c2.714-5.57,7.935-10.145,7.935-10.145S98.301,110.359,96.633,108.523z M50.145,66.817v2.585
		h8.414v-2.585H50.145z M39.121,15.044c-1.654-1.848-3.657-4.381-5.015-7.173c-2.727,5.583-7.948,10.158-7.948,10.158
		s1.331,1.137,2.985,2.985c1.667,1.835,3.67,4.381,5.027,7.16c2.714-5.57,7.935-10.145,7.935-10.145S40.788,16.879,39.121,15.044z
		 M39.121,15.044c-1.654-1.848-3.657-4.381-5.015-7.173c-2.727,5.583-7.948,10.158-7.948,10.158s1.331,1.137,2.985,2.985
		c1.667,1.835,3.67,4.381,5.027,7.16c2.714-5.57,7.935-10.145,7.935-10.145S40.788,16.879,39.121,15.044z M50.145,66.817v2.585
		h8.414v-2.585H50.145z M96.633,108.523c-1.654-1.848-3.657-4.381-5.015-7.173c-2.727,5.583-7.935,10.158-7.935,10.158
		s1.318,1.137,2.985,2.985c1.654,1.835,3.657,4.381,5.015,7.16c2.714-5.57,7.935-10.145,7.935-10.145S98.301,110.359,96.633,108.523
		z M96.633,108.523c-1.654-1.848-3.657-4.381-5.015-7.173c-2.727,5.583-7.935,10.158-7.935,10.158s1.318,1.137,2.985,2.985
		c1.654,1.835,3.657,4.381,5.015,7.16c2.714-5.57,7.935-10.145,7.935-10.145S98.301,110.359,96.633,108.523z M50.145,66.817v2.585
		h8.414v-2.585H50.145z M39.121,15.044c-1.654-1.848-3.657-4.381-5.015-7.173c-2.727,5.583-7.948,10.158-7.948,10.158
		s1.331,1.137,2.985,2.985c1.667,1.835,3.67,4.381,5.027,7.16c2.714-5.57,7.935-10.145,7.935-10.145S40.788,16.879,39.121,15.044z
		 M39.121,15.044c-1.654-1.848-3.657-4.381-5.015-7.173c-2.727,5.583-7.948,10.158-7.948,10.158s1.331,1.137,2.985,2.985
		c1.667,1.835,3.67,4.381,5.027,7.16c2.714-5.57,7.935-10.145,7.935-10.145S40.788,16.879,39.121,15.044z M50.145,66.817v2.585
		h8.414v-2.585H50.145z M96.633,108.523c-1.654-1.848-3.657-4.381-5.015-7.173c-2.727,5.583-7.935,10.158-7.935,10.158
		s1.318,1.137,2.985,2.985c1.654,1.835,3.657,4.381,5.015,7.16c2.714-5.57,7.935-10.145,7.935-10.145S98.301,110.359,96.633,108.523
		z M96.633,108.523c-1.654-1.848-3.657-4.381-5.015-7.173c-2.727,5.583-7.935,10.158-7.935,10.158s1.318,1.137,2.985,2.985
		c1.654,1.835,3.657,4.381,5.015,7.16c2.714-5.57,7.935-10.145,7.935-10.145S98.301,110.359,96.633,108.523z M50.145,66.817v2.585
		h8.414v-2.585H50.145z M39.121,15.044c-1.654-1.848-3.657-4.381-5.015-7.173c-2.727,5.583-7.948,10.158-7.948,10.158
		s1.331,1.137,2.985,2.985c1.667,1.835,3.67,4.381,5.027,7.16c2.714-5.57,7.935-10.145,7.935-10.145S40.788,16.879,39.121,15.044z
		 M90.029,81.874c-0.892-0.905-2.094-1.396-3.36-1.396c-0.788,0-1.525,0.181-2.171,0.517V58.921h1.267v-7.328h-1.241
		c0.349-2.21,1.99-12.123,3.683-14.488c1.926-2.662-8.582-2.417-8.582-2.417s5.079,11.179-3.089,9.499
		c-8.168-1.667,0.827-10.249,0-10.921c-0.814-0.646-22.1-0.646-22.914,0c-0.827,0.672,8.181,9.254,0,10.921
		c-8.168,1.68-3.076-9.499-3.076-9.499s-10.507-0.246-8.595,2.417c1.693,2.365,3.334,12.278,3.683,14.488h-1.241v7.328h1.254
		l-6.152,22.888h7.431l-1.447,20.446l19.593-2.481l5.04-6.397l-2.029-1.59l-4.381,5.557l-15.431,1.952l0.918-12.769h7.716v-2.585
		H49.37l0.336-4.717h-6.837l5.467-20.304h16.775v26.313c0,2.624,2.132,4.756,4.756,4.756c2.12,0,3.916-1.383,4.523-3.309
		c0.607,1.926,2.404,3.309,4.523,3.309c1.603,0,3.011-0.788,3.877-2.016c0.866,1.228,2.275,2.016,3.877,2.016
		c2.624,0,4.756-2.133,4.756-4.756C91.425,83.968,90.934,82.766,90.029,81.874z M69.868,87.406c-1.202,0-2.171-0.969-2.171-2.171
		s0.969-2.171,2.171-2.171c0.582,0,1.124,0.22,1.538,0.633c0.414,0.414,0.633,0.956,0.633,1.538
		C72.039,86.436,71.069,87.406,69.868,87.406z M74.391,83.787c-0.22-0.711-0.62-1.37-1.163-1.913
		c-0.892-0.905-2.094-1.396-3.36-1.396c-0.788,0-1.525,0.181-2.171,0.517V58.921h1.99v16.866h2.585V58.921h1.292v16.866h2.585
		V58.921h1.292v16.866h2.585V58.921h1.887v22.617c-0.84-0.685-1.9-1.06-2.998-1.06C76.795,80.478,74.998,81.861,74.391,83.787z
		 M78.914,87.406c-1.202,0-2.171-0.969-2.171-2.171s0.969-2.171,2.171-2.171c0.582,0,1.124,0.22,1.538,0.633
		c0.414,0.414,0.633,0.956,0.633,1.538C81.086,86.436,80.116,87.406,78.914,87.406z M83.179,56.336h-36.2v-2.158h36.2V56.336z
		 M86.669,87.406c-1.202,0-2.171-0.969-2.171-2.171s0.969-2.171,2.171-2.171c0.582,0,1.124,0.22,1.538,0.633
		c0.414,0.414,0.633,0.956,0.633,1.538C88.84,86.436,87.871,87.406,86.669,87.406z"/>
</g>
<g id="Layer_1">
</g>
</svg>
