<?xml version="1.0" encoding="iso-8859-1"?>
<!-- Generator: Adobe Illustrator 19.0.1, SVG Export Plug-In . SVG Version: 6.00 Build 0)  -->
<svg version="1.1" xmlns="http://www.w3.org/2000/svg" xmlns:xlink="http://www.w3.org/1999/xlink" x="0px" y="0px"
	 viewBox="0 0 128 128" style="enable-background:new 0 0 128 128;" xml:space="preserve">
<g id="_x36_">
	<path style="fill:#231F20;" d="M40.53,15.483c-0.349,0-0.685,0.052-1.008,0.142c0.517-0.659,0.814-1.499,0.814-2.391
		c0-2.171-1.758-3.929-3.916-3.929c-2.171,0-3.929,1.758-3.929,3.929c0,0.892,0.31,1.732,0.814,2.391
		c-0.323-0.09-0.659-0.142-1.008-0.142c-2.171,0-3.929,1.758-3.929,3.929c0,2.158,1.758,3.916,3.929,3.916
		c1.473,0,2.753-0.814,3.425-2.016v-0.116c0.026,0,0.039,0.013,0.052,0.013c-0.013,0.039-0.026,0.078-0.052,0.103
		c-0.065,1.616-0.439,3.968-1.874,5.428h5.131c-1.435-1.46-1.796-3.8-1.861-5.415c-0.013-0.013-0.026-0.026-0.026-0.039
		c0,0,0.013,0,0.013-0.013c0,0.026,0,0.039,0.013,0.052c0.659,1.202,1.952,2.003,3.412,2.003c2.171,0,3.929-1.758,3.929-3.916
		C44.459,17.241,42.701,15.483,40.53,15.483z M95.703,106.197c-1.473,0-2.766,0.814-3.425,2.016v0.129
		c-0.026-0.013-0.039-0.013-0.065-0.026c0.026-0.026,0.039-0.065,0.065-0.103c0.065-1.603,0.439-3.955,1.874-5.428h-5.131
		c1.435,1.46,1.796,3.813,1.861,5.428c0.013,0.013,0.013,0.026,0.026,0.039h-0.013c0-0.013,0-0.026-0.013-0.039
		c-0.672-1.202-1.952-2.016-3.412-2.016c-2.171,0-3.929,1.758-3.929,3.929c0,2.158,1.758,3.916,3.929,3.916
		c0.349,0,0.685-0.039,1.008-0.129c-0.517,0.659-0.814,1.486-0.814,2.391c0,2.158,1.758,3.916,3.916,3.916
		c2.171,0,3.929-1.758,3.929-3.916c0-0.905-0.31-1.732-0.814-2.391c0.323,0.09,0.659,0.129,1.008,0.129
		c2.171,0,3.916-1.758,3.916-3.916C99.619,107.955,97.874,106.197,95.703,106.197z M40.53,15.483c-0.349,0-0.685,0.052-1.008,0.142
		c0.517-0.659,0.814-1.499,0.814-2.391c0-2.171-1.758-3.929-3.916-3.929c-2.171,0-3.929,1.758-3.929,3.929
		c0,0.892,0.31,1.732,0.814,2.391c-0.323-0.09-0.659-0.142-1.008-0.142c-2.171,0-3.929,1.758-3.929,3.929
		c0,2.158,1.758,3.916,3.929,3.916c1.473,0,2.753-0.814,3.425-2.016v-0.116c0.026,0,0.039,0.013,0.052,0.013
		c-0.013,0.039-0.026,0.078-0.052,0.103c-0.065,1.616-0.439,3.968-1.874,5.428h5.131c-1.435-1.46-1.796-3.8-1.861-5.415
		c-0.013-0.013-0.026-0.026-0.026-0.039c0,0,0.013,0,0.013-0.013c0,0.026,0,0.039,0.013,0.052c0.659,1.202,1.952,2.003,3.412,2.003
		c2.171,0,3.929-1.758,3.929-3.916C44.459,17.241,42.701,15.483,40.53,15.483z M53.57,67.063c-2.611,0-4.717,0.685-4.717,1.538
		c0,0.853,2.107,1.538,4.717,1.538c2.598,0,4.704-0.685,4.704-1.538C58.275,67.748,56.168,67.063,53.57,67.063z M48.853,63.535
		v1.292h9.422v-1.292H48.853z M44.795,49.9v3.877h38.966V49.9H44.795z M83.774,31.444c-1.331,0-2.404,1.073-2.404,2.391
		c0,1.228,0.93,2.249,2.119,2.378c-0.62,2.675-2.456,4.614-4.64,4.614c-2.171,0-4.019-1.926-4.64-4.601
		c1.279-0.052,2.301-1.099,2.301-2.391c0-1.318-1.073-2.391-2.404-2.391c-1.331,0-2.404,1.073-2.404,2.391
		c0,1.215,0.905,2.223,2.068,2.378c-0.607,2.675-2.456,4.614-4.64,4.614c-2.171,0-4.006-1.939-4.627-4.601
		c1.241-0.09,2.21-1.124,2.21-2.391c0-1.318-1.073-2.391-2.404-2.391c-1.331,0-2.404,1.073-2.404,2.391
		c0,1.241,0.943,2.262,2.158,2.391c-0.62,2.662-2.469,4.601-4.64,4.601c-2.184,0-4.019-1.939-4.64-4.614
		c1.202-0.129,2.132-1.137,2.132-2.378c0-1.318-1.073-2.391-2.404-2.391c-1.318,0-2.404,1.073-2.404,2.391
		c0,1.267,0.982,2.301,2.236,2.391c-0.62,2.662-2.468,4.601-4.64,4.601c-2.171,0-4.019-1.939-4.64-4.614
		c1.202-0.129,2.12-1.15,2.12-2.378c0-1.318-1.073-2.391-2.391-2.391c-1.331,0-2.404,1.073-2.404,2.391
		c0,1.331,1.073,2.404,2.404,2.404v11.722h38.979V36.239c1.318,0,2.391-1.073,2.391-2.404
		C86.165,32.517,85.092,31.444,83.774,31.444z M95.703,106.197c-1.473,0-2.766,0.814-3.425,2.016v0.129
		c-0.026-0.013-0.039-0.013-0.065-0.026c0.026-0.026,0.039-0.065,0.065-0.103c0.065-1.603,0.439-3.955,1.874-5.428h-5.131
		c1.435,1.46,1.796,3.813,1.861,5.428c0.013,0.013,0.013,0.026,0.026,0.039h-0.013c0-0.013,0-0.026-0.013-0.039
		c-0.672-1.202-1.952-2.016-3.412-2.016c-2.171,0-3.929,1.758-3.929,3.929c0,2.158,1.758,3.916,3.929,3.916
		c0.349,0,0.685-0.039,1.008-0.129c-0.517,0.659-0.814,1.486-0.814,2.391c0,2.158,1.758,3.916,3.916,3.916
		c2.171,0,3.929-1.758,3.929-3.916c0-0.905-0.31-1.732-0.814-2.391c0.323,0.09,0.659,0.129,1.008,0.129
		c2.171,0,3.916-1.758,3.916-3.916C99.619,107.955,97.874,106.197,95.703,106.197z M95.703,106.197
		c-1.473,0-2.766,0.814-3.425,2.016v0.129c-0.026-0.013-0.039-0.013-0.065-0.026c0.026-0.026,0.039-0.065,0.065-0.103
		c0.065-1.603,0.439-3.955,1.874-5.428h-5.131c1.435,1.46,1.796,3.813,1.861,5.428c0.013,0.013,0.013,0.026,0.026,0.039h-0.013
		c0-0.013,0-0.026-0.013-0.039c-0.672-1.202-1.952-2.016-3.412-2.016c-2.171,0-3.929,1.758-3.929,3.929
		c0,2.158,1.758,3.916,3.929,3.916c0.349,0,0.685-0.039,1.008-0.129c-0.517,0.659-0.814,1.486-0.814,2.391
		c0,2.158,1.758,3.916,3.916,3.916c2.171,0,3.929-1.758,3.929-3.916c0-0.905-0.31-1.732-0.814-2.391
		c0.323,0.09,0.659,0.129,1.008,0.129c2.171,0,3.916-1.758,3.916-3.916C99.619,107.955,97.874,106.197,95.703,106.197z
		 M44.795,47.961h38.979V36.239c1.318,0,2.391-1.073,2.391-2.404c0-1.318-1.073-2.391-2.391-2.391c-1.331,0-2.404,1.073-2.404,2.391
		c0,1.228,0.93,2.249,2.119,2.378c-0.62,2.675-2.456,4.614-4.64,4.614c-2.171,0-4.019-1.926-4.64-4.601
		c1.279-0.052,2.301-1.099,2.301-2.391c0-1.318-1.073-2.391-2.404-2.391c-1.331,0-2.404,1.073-2.404,2.391
		c0,1.215,0.905,2.223,2.068,2.378c-0.607,2.675-2.456,4.614-4.64,4.614c-2.171,0-4.006-1.939-4.627-4.601
		c1.241-0.09,2.21-1.124,2.21-2.391c0-1.318-1.073-2.391-2.404-2.391c-1.331,0-2.404,1.073-2.404,2.391
		c0,1.241,0.943,2.262,2.158,2.391c-0.62,2.662-2.469,4.601-4.64,4.601c-2.184,0-4.019-1.939-4.64-4.614
		c1.202-0.129,2.132-1.137,2.132-2.378c0-1.318-1.073-2.391-2.404-2.391c-1.318,0-2.404,1.073-2.404,2.391
		c0,1.267,0.982,2.301,2.236,2.391c-0.62,2.662-2.468,4.601-4.64,4.601c-2.171,0-4.019-1.939-4.64-4.614
		c1.202-0.129,2.12-1.15,2.12-2.378c0-1.318-1.073-2.391-2.391-2.391c-1.331,0-2.404,1.073-2.404,2.391
		c0,1.331,1.073,2.404,2.404,2.404V47.961z M83.761,49.9H44.795v3.877h38.966V49.9z M48.853,64.827h9.422v-1.292h-9.422V64.827z
		 M53.57,67.063c-2.611,0-4.717,0.685-4.717,1.538c0,0.853,2.107,1.538,4.717,1.538c2.598,0,4.704-0.685,4.704-1.538
		C58.275,67.748,56.168,67.063,53.57,67.063z M40.53,23.328c2.171,0,3.929-1.758,3.929-3.916c0-2.171-1.758-3.929-3.929-3.929
		c-0.349,0-0.685,0.052-1.008,0.142c0.517-0.659,0.814-1.499,0.814-2.391c0-2.171-1.758-3.929-3.916-3.929
		c-2.171,0-3.929,1.758-3.929,3.929c0,0.892,0.31,1.732,0.814,2.391c-0.323-0.09-0.659-0.142-1.008-0.142
		c-2.171,0-3.929,1.758-3.929,3.929c0,2.158,1.758,3.916,3.929,3.916c1.473,0,2.753-0.814,3.425-2.016v-0.116
		c0.026,0,0.039,0.013,0.052,0.013c-0.013,0.039-0.026,0.078-0.052,0.103c-0.065,1.616-0.439,3.968-1.874,5.428h5.131
		c-1.435-1.46-1.796-3.8-1.861-5.415c-0.013-0.013-0.026-0.026-0.026-0.039c0,0,0.013,0,0.013-0.013c0,0.026,0,0.039,0.013,0.052
		C37.777,22.527,39.069,23.328,40.53,23.328z M102.268,0H25.732c-3.205,0-5.816,2.611-5.816,5.816v116.368
		c0,3.205,2.611,5.816,5.816,5.816h76.536c3.205,0,5.816-2.611,5.816-5.816V5.816C108.084,2.611,105.473,0,102.268,0z
		 M104.207,122.184c0,1.073-0.879,1.939-1.939,1.939H25.732c-1.073,0-1.939-0.866-1.939-1.939V5.816
		c0-1.073,0.866-1.939,1.939-1.939h76.536c1.06,0,1.939,0.866,1.939,1.939V122.184z M95.703,106.197
		c-1.473,0-2.766,0.814-3.425,2.016v0.129c-0.026-0.013-0.039-0.013-0.065-0.026c0.026-0.026,0.039-0.065,0.065-0.103
		c0.065-1.603,0.439-3.955,1.874-5.428h-5.131c1.435,1.46,1.796,3.813,1.861,5.428c0.013,0.013,0.013,0.026,0.026,0.039h-0.013
		c0-0.013,0-0.026-0.013-0.039c-0.672-1.202-1.952-2.016-3.412-2.016c-2.171,0-3.929,1.758-3.929,3.929
		c0,2.158,1.758,3.916,3.929,3.916c0.349,0,0.685-0.039,1.008-0.129c-0.517,0.659-0.814,1.486-0.814,2.391
		c0,2.158,1.758,3.916,3.916,3.916c2.171,0,3.929-1.758,3.929-3.916c0-0.905-0.31-1.732-0.814-2.391
		c0.323,0.09,0.659,0.129,1.008,0.129c2.171,0,3.916-1.758,3.916-3.916C99.619,107.955,97.874,106.197,95.703,106.197z
		 M44.795,47.961h38.979V36.239c1.318,0,2.391-1.073,2.391-2.404c0-1.318-1.073-2.391-2.391-2.391c-1.331,0-2.404,1.073-2.404,2.391
		c0,1.228,0.93,2.249,2.119,2.378c-0.62,2.675-2.456,4.614-4.64,4.614c-2.171,0-4.019-1.926-4.64-4.601
		c1.279-0.052,2.301-1.099,2.301-2.391c0-1.318-1.073-2.391-2.404-2.391c-1.331,0-2.404,1.073-2.404,2.391
		c0,1.215,0.905,2.223,2.068,2.378c-0.607,2.675-2.456,4.614-4.64,4.614c-2.171,0-4.006-1.939-4.627-4.601
		c1.241-0.09,2.21-1.124,2.21-2.391c0-1.318-1.073-2.391-2.404-2.391c-1.331,0-2.404,1.073-2.404,2.391
		c0,1.241,0.943,2.262,2.158,2.391c-0.62,2.662-2.469,4.601-4.64,4.601c-2.184,0-4.019-1.939-4.64-4.614
		c1.202-0.129,2.132-1.137,2.132-2.378c0-1.318-1.073-2.391-2.404-2.391c-1.318,0-2.404,1.073-2.404,2.391
		c0,1.267,0.982,2.301,2.236,2.391c-0.62,2.662-2.468,4.601-4.64,4.601c-2.171,0-4.019-1.939-4.64-4.614
		c1.202-0.129,2.12-1.15,2.12-2.378c0-1.318-1.073-2.391-2.391-2.391c-1.331,0-2.404,1.073-2.404,2.391
		c0,1.331,1.073,2.404,2.404,2.404V47.961z M83.761,49.9H44.795v3.877h38.966V49.9z M48.853,64.827h9.422v-1.292h-9.422V64.827z
		 M53.57,67.063c-2.611,0-4.717,0.685-4.717,1.538c0,0.853,2.107,1.538,4.717,1.538c2.598,0,4.704-0.685,4.704-1.538
		C58.275,67.748,56.168,67.063,53.57,67.063z M40.53,23.328c2.171,0,3.929-1.758,3.929-3.916c0-2.171-1.758-3.929-3.929-3.929
		c-0.349,0-0.685,0.052-1.008,0.142c0.517-0.659,0.814-1.499,0.814-2.391c0-2.171-1.758-3.929-3.916-3.929
		c-2.171,0-3.929,1.758-3.929,3.929c0,0.892,0.31,1.732,0.814,2.391c-0.323-0.09-0.659-0.142-1.008-0.142
		c-2.171,0-3.929,1.758-3.929,3.929c0,2.158,1.758,3.916,3.929,3.916c1.473,0,2.753-0.814,3.425-2.016v-0.116
		c0.026,0,0.039,0.013,0.052,0.013c-0.013,0.039-0.026,0.078-0.052,0.103c-0.065,1.616-0.439,3.968-1.874,5.428h5.131
		c-1.435-1.46-1.796-3.8-1.861-5.415c-0.013-0.013-0.026-0.026-0.026-0.039c0,0,0.013,0,0.013-0.013c0,0.026,0,0.039,0.013,0.052
		C37.777,22.527,39.069,23.328,40.53,23.328z M40.53,15.483c-0.349,0-0.685,0.052-1.008,0.142c0.517-0.659,0.814-1.499,0.814-2.391
		c0-2.171-1.758-3.929-3.916-3.929c-2.171,0-3.929,1.758-3.929,3.929c0,0.892,0.31,1.732,0.814,2.391
		c-0.323-0.09-0.659-0.142-1.008-0.142c-2.171,0-3.929,1.758-3.929,3.929c0,2.158,1.758,3.916,3.929,3.916
		c1.473,0,2.753-0.814,3.425-2.016v-0.116c0.026,0,0.039,0.013,0.052,0.013c-0.013,0.039-0.026,0.078-0.052,0.103
		c-0.065,1.616-0.439,3.968-1.874,5.428h5.131c-1.435-1.46-1.796-3.8-1.861-5.415c-0.013-0.013-0.026-0.026-0.026-0.039
		c0,0,0.013,0,0.013-0.013c0,0.026,0,0.039,0.013,0.052c0.659,1.202,1.952,2.003,3.412,2.003c2.171,0,3.929-1.758,3.929-3.916
		C44.459,17.241,42.701,15.483,40.53,15.483z M53.57,67.063c-2.611,0-4.717,0.685-4.717,1.538c0,0.853,2.107,1.538,4.717,1.538
		c2.598,0,4.704-0.685,4.704-1.538C58.275,67.748,56.168,67.063,53.57,67.063z M48.853,63.535v1.292h9.422v-1.292H48.853z
		 M44.795,49.9v3.877h38.966V49.9H44.795z M83.774,31.444c-1.331,0-2.404,1.073-2.404,2.391c0,1.228,0.93,2.249,2.119,2.378
		c-0.62,2.675-2.456,4.614-4.64,4.614c-2.171,0-4.019-1.926-4.64-4.601c1.279-0.052,2.301-1.099,2.301-2.391
		c0-1.318-1.073-2.391-2.404-2.391c-1.331,0-2.404,1.073-2.404,2.391c0,1.215,0.905,2.223,2.068,2.378
		c-0.607,2.675-2.456,4.614-4.64,4.614c-2.171,0-4.006-1.939-4.627-4.601c1.241-0.09,2.21-1.124,2.21-2.391
		c0-1.318-1.073-2.391-2.404-2.391c-1.331,0-2.404,1.073-2.404,2.391c0,1.241,0.943,2.262,2.158,2.391
		c-0.62,2.662-2.469,4.601-4.64,4.601c-2.184,0-4.019-1.939-4.64-4.614c1.202-0.129,2.132-1.137,2.132-2.378
		c0-1.318-1.073-2.391-2.404-2.391c-1.318,0-2.404,1.073-2.404,2.391c0,1.267,0.982,2.301,2.236,2.391
		c-0.62,2.662-2.468,4.601-4.64,4.601c-2.171,0-4.019-1.939-4.64-4.614c1.202-0.129,2.12-1.15,2.12-2.378
		c0-1.318-1.073-2.391-2.391-2.391c-1.331,0-2.404,1.073-2.404,2.391c0,1.331,1.073,2.404,2.404,2.404v11.722h38.979V36.239
		c1.318,0,2.391-1.073,2.391-2.404C86.165,32.517,85.092,31.444,83.774,31.444z M95.703,106.197c-1.473,0-2.766,0.814-3.425,2.016
		v0.129c-0.026-0.013-0.039-0.013-0.065-0.026c0.026-0.026,0.039-0.065,0.065-0.103c0.065-1.603,0.439-3.955,1.874-5.428h-5.131
		c1.435,1.46,1.796,3.813,1.861,5.428c0.013,0.013,0.013,0.026,0.026,0.039h-0.013c0-0.013,0-0.026-0.013-0.039
		c-0.672-1.202-1.952-2.016-3.412-2.016c-2.171,0-3.929,1.758-3.929,3.929c0,2.158,1.758,3.916,3.929,3.916
		c0.349,0,0.685-0.039,1.008-0.129c-0.517,0.659-0.814,1.486-0.814,2.391c0,2.158,1.758,3.916,3.916,3.916
		c2.171,0,3.929-1.758,3.929-3.916c0-0.905-0.31-1.732-0.814-2.391c0.323,0.09,0.659,0.129,1.008,0.129
		c2.171,0,3.916-1.758,3.916-3.916C99.619,107.955,97.874,106.197,95.703,106.197z M83.774,31.444c-1.331,0-2.404,1.073-2.404,2.391
		c0,1.228,0.93,2.249,2.119,2.378c-0.62,2.675-2.456,4.614-4.64,4.614c-2.171,0-4.019-1.926-4.64-4.601
		c1.279-0.052,2.301-1.099,2.301-2.391c0-1.318-1.073-2.391-2.404-2.391c-1.331,0-2.404,1.073-2.404,2.391
		c0,1.215,0.905,2.223,2.068,2.378c-0.607,2.675-2.456,4.614-4.64,4.614c-2.171,0-4.006-1.939-4.627-4.601
		c1.241-0.09,2.21-1.124,2.21-2.391c0-1.318-1.073-2.391-2.404-2.391c-1.331,0-2.404,1.073-2.404,2.391
		c0,1.241,0.943,2.262,2.158,2.391c-0.62,2.662-2.469,4.601-4.64,4.601c-2.184,0-4.019-1.939-4.64-4.614
		c1.202-0.129,2.132-1.137,2.132-2.378c0-1.318-1.073-2.391-2.404-2.391c-1.318,0-2.404,1.073-2.404,2.391
		c0,1.267,0.982,2.301,2.236,2.391c-0.62,2.662-2.468,4.601-4.64,4.601c-2.171,0-4.019-1.939-4.64-4.614
		c1.202-0.129,2.12-1.15,2.12-2.378c0-1.318-1.073-2.391-2.391-2.391c-1.331,0-2.404,1.073-2.404,2.391
		c0,1.331,1.073,2.404,2.404,2.404v11.722h38.979V36.239c1.318,0,2.391-1.073,2.391-2.404
		C86.165,32.517,85.092,31.444,83.774,31.444z M44.795,49.9v3.877h38.966V49.9H44.795z M48.853,63.535v1.292h9.422v-1.292H48.853z
		 M53.57,67.063c-2.611,0-4.717,0.685-4.717,1.538c0,0.853,2.107,1.538,4.717,1.538c2.598,0,4.704-0.685,4.704-1.538
		C58.275,67.748,56.168,67.063,53.57,67.063z M97.034,95.121l-27.347-9.473l-1.215-27.696H48.129l-7.354,23.354l5.196,0.323
		l0.439,4.614l6.953-0.724l0.401,3.851l-6.979,0.737l0.659,6.772l18.249-4.924l0.672,2.494l-21.208,5.725l-1.551-16.103
		l-6.281-0.388l8.905-28.317h36.278v0.775L97.034,95.121z"/>
</g>
<g id="Layer_1">
</g>
</svg>
