<?xml version="1.0" encoding="iso-8859-1"?>
<!-- Generator: Adobe Illustrator 19.0.1, SVG Export Plug-In . SVG Version: 6.00 Build 0)  -->
<svg version="1.1" xmlns="http://www.w3.org/2000/svg" xmlns:xlink="http://www.w3.org/1999/xlink" x="0px" y="0px"
	 viewBox="0 0 128 128" style="enable-background:new 0 0 128 128;" xml:space="preserve">
<g id="_x37_">
	<path id="icon_5_" style="fill:#231F20;" d="M102.263,128H25.737c-3.207,0-5.815-2.609-5.815-5.815V5.815
		C19.922,2.609,22.53,0,25.737,0h76.526c3.207,0,5.815,2.609,5.815,5.815v116.369C108.078,125.391,105.47,128,102.263,128z
		 M25.737,3.877c-1.069,0-1.938,0.87-1.938,1.938v116.369c0,1.069,0.87,1.938,1.938,1.938h76.526c1.069,0,1.938-0.87,1.938-1.938
		V5.815c0-1.069-0.87-1.938-1.938-1.938H25.737z M94.944,64.415c-0.887-4.044-3.592-11.454-11.471-11.775
		c-5.486-0.226-9.792,4.854-12.716,9.947l-4.568-18.577c1.751-0.494,3.038-2.103,3.038-4.014c0-2.305-1.864-4.169-4.169-4.169
		c-2.305,0-4.169,1.864-4.169,4.169c0,1.912,1.287,3.52,3.038,4.014l-4.193,17.058c-2.877-4.533-6.861-8.63-11.799-8.428
		c-7.88,0.322-10.584,7.731-11.471,11.775c-1.93,0.101-3.466,1.703-3.466,3.663c0,2.025,1.644,3.669,3.669,3.669
		c2.031,0,3.675-1.644,3.675-3.669c0-0.887-0.316-1.697-0.834-2.329c1.328-1.834,3.729-3.86,7.237-2.019
		c6.004,3.157,5.658,11.096,5.658,11.096h26.606c0,0-0.345-7.939,5.658-11.096c3.508-1.84,5.908,0.185,7.237,2.019
		c-0.518,0.631-0.834,1.441-0.834,2.329c0,2.025,1.644,3.669,3.675,3.669c2.025,0,3.669-1.644,3.669-3.669
		C98.41,66.118,96.874,64.516,94.944,64.415z M34.864,13.909c0,0.686-0.174,1.198-0.521,1.537c-0.347,0.339-0.846,0.508-1.493,0.508
		c-0.76,0-1.311-0.171-1.655-0.512s-0.512-0.894-0.51-1.656v-0.446h1.267v0.133c0,0.569,0.061,0.941,0.182,1.12
		c0.121,0.178,0.326,0.267,0.613,0.267c0.271,0,0.466-0.066,0.583-0.199c0.119-0.133,0.177-0.368,0.177-0.707V9.297h1.357V13.909z
		 M29.875,21.771c0-1.113,0.289-1.961,0.87-2.544s1.326-0.875,2.24-0.875c0.912,0,1.662,0.288,2.25,0.864
		c0.587,0.575,0.881,1.427,0.881,2.555c0,1.101-0.289,1.947-0.866,2.535c-0.577,0.589-1.328,0.883-2.253,0.883
		c-0.881,0-1.62-0.279-2.221-0.837C30.176,23.795,29.875,22.934,29.875,21.771z M31.231,21.771c0,0.754,0.168,1.321,0.504,1.701
		c0.336,0.38,0.761,0.57,1.276,0.57c0.516,0,0.936-0.196,1.262-0.587c0.326-0.392,0.487-0.953,0.487-1.683s-0.16-1.291-0.483-1.683
		c-0.322-0.392-0.75-0.587-1.283-0.587c-0.533,0-0.959,0.195-1.28,0.585C31.391,20.477,31.231,21.038,31.231,21.771z M31.787,34.245
		h-1.357v-6.493h1.357v2.641l2.481-2.641h1.754l-2.65,2.659l2.804,3.834h-1.749l-2.004-2.849l-0.636,0.649V34.245z M35.437,38.127
		h-3.445v1.365h3.168v1.148h-3.168v1.683h3.601v1.148h-4.93v-6.493h4.774V38.127z M30.444,46.205h3.283
		c0.668,0,1.176,0.179,1.523,0.536c0.347,0.358,0.521,0.79,0.521,1.297c0,0.753-0.334,1.268-1.002,1.545
		c0.308,0.119,0.522,0.289,0.642,0.511c0.119,0.222,0.178,0.623,0.178,1.203c0,0.578,0.021,0.917,0.064,1.018
		c0.043,0.102,0.117,0.172,0.223,0.211v0.172h-1.497c-0.098-0.292-0.146-0.713-0.146-1.263c0-0.462-0.03-0.761-0.093-0.895
		c-0.061-0.134-0.164-0.231-0.307-0.292s-0.362-0.09-0.66-0.09h-1.401v2.539h-1.329V46.205z M33.363,49.063
		c0.357,0,0.621-0.068,0.794-0.204c0.172-0.135,0.259-0.363,0.259-0.684c0-0.265-0.081-0.473-0.241-0.625
		c-0.16-0.151-0.398-0.228-0.709-0.228h-1.692v1.742H33.363z M94.946,113.797c0-0.673,0.174-1.175,0.521-1.507
		c0.347-0.332,0.846-0.499,1.493-0.499c0.76,0,1.311,0.168,1.655,0.502c0.343,0.334,0.512,0.876,0.51,1.624v0.437h-1.267v-0.13
		c0-0.557-0.061-0.923-0.182-1.097c-0.121-0.175-0.326-0.263-0.613-0.263c-0.271,0-0.466,0.064-0.583,0.194
		c-0.119,0.13-0.177,0.361-0.177,0.693v4.565h-1.357V113.797z M99.935,106.089c0,1.092-0.289,1.923-0.87,2.495
		c-0.581,0.57-1.326,0.857-2.24,0.857c-0.912,0-1.662-0.283-2.25-0.847c-0.587-0.564-0.881-1.4-0.881-2.505
		c0-1.08,0.289-1.908,0.866-2.486c0.577-0.577,1.328-0.866,2.253-0.866c0.881,0,1.62,0.274,2.221,0.82
		C99.634,104.105,99.935,104.948,99.935,106.089z M98.579,106.089c0-0.74-0.168-1.295-0.504-1.667s-0.761-0.559-1.276-0.559
		c-0.516,0-0.936,0.192-1.262,0.577c-0.326,0.384-0.487,0.934-0.487,1.649c0,0.716,0.16,1.266,0.483,1.649
		c0.322,0.385,0.75,0.577,1.283,0.577c0.533,0,0.959-0.192,1.28-0.574C98.419,107.358,98.579,106.808,98.579,106.089z
		 M98.023,93.861h1.357v6.366h-1.357v-2.59l-2.481,2.59h-1.754l2.65-2.607l-2.804-3.758h1.749l2.004,2.793l0.636-0.636V93.861z
		 M94.373,90.054h3.445v-1.338H94.65v-1.126h3.168V85.94h-3.601v-1.126h4.93v6.366h-4.774V90.054z M99.365,82.135h-3.283
		c-0.668,0-1.176-0.175-1.523-0.526c-0.347-0.351-0.521-0.774-0.521-1.271c0-0.74,0.334-1.244,1.002-1.516
		c-0.308-0.115-0.522-0.283-0.642-0.5c-0.119-0.218-0.178-0.612-0.178-1.18c0-0.567-0.021-0.899-0.064-0.998
		s-0.117-0.168-0.223-0.206v-0.169h1.497c0.098,0.285,0.146,0.699,0.146,1.238c0,0.453,0.03,0.746,0.093,0.877
		c0.061,0.131,0.164,0.227,0.307,0.286s0.362,0.088,0.66,0.088h1.401v-2.49h1.329V82.135z M96.446,79.333
		c-0.357,0-0.621,0.067-0.794,0.199c-0.172,0.133-0.259,0.356-0.259,0.671c0,0.26,0.081,0.463,0.241,0.612s0.398,0.223,0.709,0.223
		h1.692v-1.706H96.446z"/>
</g>
<g id="Layer_1">
</g>
</svg>
