<?xml version="1.0" encoding="iso-8859-1"?>
<!-- Generator: Adobe Illustrator 19.0.1, SVG Export Plug-In . SVG Version: 6.00 Build 0)  -->
<svg version="1.1" xmlns="http://www.w3.org/2000/svg" xmlns:xlink="http://www.w3.org/1999/xlink" x="0px" y="0px"
	 viewBox="0 0 128 128" style="enable-background:new 0 0 128 128;" xml:space="preserve">
<g id="_x38_">
	<path id="icon_6_" style="fill:#231F20;" d="M103.057,0H24.943c-3.271,0-5.936,2.664-5.936,5.936v116.129
		c0,3.271,2.664,5.936,5.936,5.936h78.114c3.271,0,5.936-2.664,5.936-5.936V5.936C108.993,2.664,106.328,0,103.057,0z
		 M105.917,123.311c0,0.364-0.094,0.714-0.283,0.997l-3.907-3.907l-4.716,4.716l-4.716-4.716l-4.716,4.716l-4.716-4.716
		l-4.716,4.716l-4.716-4.716l-4.716,4.716L64,120.401l-4.716,4.716l-4.716-4.716l-4.716,4.716l-4.716-4.716l-4.716,4.716
		l-4.716-4.716l-4.716,4.716l-4.716-4.716l-3.907,3.907c-0.189-0.283-0.283-0.633-0.283-0.997v-2.048l4.069-4.069l4.716,4.716
		l4.716-4.716l4.716,4.716l4.716-4.716l4.716,4.716l4.716-4.716l4.716,4.716l4.716-4.716l4.716,4.716l4.716-4.716l4.716,4.716
		l4.716-4.716l4.716,4.716l4.716-4.716l4.716,4.716l4.716-4.716l4.312,4.312V123.311z M105.917,112.047l-4.312,4.312l-4.716-4.716
		l-4.716,4.716l-4.716-4.716l-4.716,4.716l-4.716-4.716l-4.716,4.716l-4.716-4.716l-4.716,4.716l-4.716-4.716l-4.716,4.716
		l-4.716-4.716l-4.716,4.716l-4.716-4.716l-4.716,4.716l-4.716-4.716l-4.716,4.716l-4.069-4.069v-3.328l4.19,4.19l4.716-4.716
		l4.716,4.716l4.716-4.716l4.716,4.716l4.716-4.716l4.716,4.716l4.716-4.716L64,113.152l4.716-4.716l4.716,4.716l4.716-4.716
		l4.716,4.716l4.716-4.716l4.716,4.716l4.716-4.716l4.716,4.716l4.19-4.19V112.047z M105.917,107.075l-4.19-4.19l-4.716,4.716
		l-4.716-4.716l-4.716,4.716l-4.716-4.716l-4.716,4.716l-4.716-4.716l-4.716,4.716L64,102.885l-4.716,4.716l-4.716-4.716
		l-4.716,4.716l-4.716-4.716l-4.716,4.716l-4.716-4.716l-4.716,4.716l-4.716-4.716l-4.19,4.19v-3.328l4.069-4.069l4.716,4.716
		l4.716-4.716l4.716,4.716l4.716-4.716l4.716,4.716l4.716-4.716l4.716,4.716l4.716-4.716l4.716,4.716l4.716-4.716l4.716,4.716
		l4.716-4.716l4.716,4.716l4.716-4.716l4.716,4.716l4.716-4.716l4.312,4.312V107.075z M105.917,94.531l-4.312,4.312l-4.716-4.716
		l-4.716,4.716l-4.716-4.716l-4.716,4.716l-4.716-4.716l-4.716,4.716l-4.716-4.716l-4.716,4.716l-4.716-4.716l-4.716,4.716
		l-4.716-4.716l-4.716,4.716L40.3,94.127l-4.716,4.716l-4.716-4.716l-4.716,4.716l-4.069-4.069v-3.328l4.19,4.19l4.716-4.716
		l4.716,4.716l4.716-4.716l4.716,4.716l4.716-4.716l4.716,4.716l4.716-4.716L64,95.636l4.716-4.716l4.716,4.716l4.716-4.716
		l4.716,4.716l4.716-4.716l4.716,4.716l4.716-4.716l4.716,4.716l4.19-4.19V94.531z M105.917,89.56l-4.19-4.19l-4.716,4.716
		l-4.716-4.716l-4.716,4.716l-4.716-4.716l-4.716,4.716l-4.716-4.716l-4.716,4.716L64,85.369l-4.716,4.716l-4.716-4.716
		l-4.716,4.716l-4.716-4.716l-4.716,4.716l-4.716-4.716l-4.716,4.716l-4.716-4.716l-4.19,4.19v-3.328l4.069-4.069l4.716,4.716
		l4.716-4.716l4.716,4.716l4.716-4.716l4.716,4.716l4.716-4.716l4.716,4.716l4.716-4.716l4.716,4.716l4.716-4.716l4.716,4.716
		l4.716-4.716l4.716,4.716l4.716-4.716l4.716,4.716l4.716-4.716l4.312,4.312V89.56z M105.917,77.016l-4.312,4.312l-4.716-4.716
		l-4.716,4.716l-4.716-4.716l-4.716,4.716l-4.716-4.716l-4.716,4.716l-4.716-4.716l-4.716,4.716l-4.716-4.716l-4.716,4.716
		l-4.716-4.716l-4.716,4.716L40.3,76.611l-4.716,4.716l-4.716-4.716l-4.716,4.716l-4.069-4.069V73.93l4.19,4.19l4.716-4.716
		l4.716,4.716l4.716-4.716l4.716,4.716l4.716-4.716l4.716,4.716l4.716-4.716L64,78.12l4.716-4.716l4.716,4.716l4.716-4.716
		l4.716,4.716l4.716-4.716l4.716,4.716l4.716-4.716l4.716,4.716l4.19-4.19V77.016z M105.917,72.044l-4.19-4.19l-4.716,4.716
		l-4.716-4.716l-4.716,4.716l-4.716-4.716l-4.716,4.716l-4.716-4.716l-4.716,4.716L64,67.853l-4.716,4.716l-4.716-4.716
		l-4.716,4.716l-4.716-4.716l-4.716,4.716l-4.716-4.716l-4.716,4.716l-4.716-4.716l-4.19,4.19v-3.328l4.069-4.069l4.716,4.716
		l4.716-4.716l4.716,4.716l4.716-4.716l4.716,4.716l4.716-4.716l4.716,4.716l4.716-4.716l4.716,4.716l4.716-4.716l4.716,4.716
		l4.716-4.716l4.716,4.716l4.716-4.716l4.716,4.716l4.716-4.716l4.312,4.312V72.044z M105.917,59.5l-4.312,4.312l-4.716-4.716
		l-4.716,4.716l-4.716-4.716l-4.716,4.716l-4.716-4.716l-4.716,4.716l-4.716-4.716l-4.716,4.716l-4.716-4.716l-4.716,4.716
		l-4.716-4.716l-4.716,4.716L40.3,59.096l-4.716,4.716l-4.716-4.716l-4.716,4.716l-4.069-4.069v-3.328l4.19,4.19l4.716-4.716
		l4.716,4.716l4.716-4.716l4.716,4.716l4.716-4.716l4.716,4.716l4.716-4.716L64,60.605l4.716-4.716l4.716,4.716l4.716-4.716
		l4.716,4.716l4.716-4.716l4.716,4.716l4.716-4.716l4.716,4.716l4.19-4.19V59.5z M105.917,54.528l-4.19-4.19l-4.716,4.716
		l-4.716-4.716l-4.716,4.716l-4.716-4.716l-4.716,4.716l-4.716-4.716l-4.716,4.716L64,50.338l-4.716,4.716l-4.716-4.716
		l-4.716,4.716l-4.716-4.716l-4.716,4.716l-4.716-4.716l-4.716,4.716l-4.716-4.716l-4.19,4.19V51.2l4.069-4.069l4.716,4.716
		l4.716-4.716l4.716,4.716l4.716-4.716l4.716,4.716l4.716-4.716l4.716,4.716l4.716-4.716l4.716,4.716l4.716-4.716l4.716,4.716
		l4.716-4.716l4.716,4.716l4.716-4.716l4.716,4.716l4.716-4.716l4.312,4.312V54.528z M105.917,41.984l-4.312,4.312l-4.716-4.716
		l-4.716,4.716l-4.716-4.716l-4.716,4.716l-4.716-4.716l-4.716,4.716l-4.716-4.716l-4.716,4.716l-4.716-4.716l-4.716,4.716
		l-4.716-4.716l-4.716,4.716L40.3,41.58l-4.716,4.716l-4.716-4.716l-4.716,4.716l-4.069-4.069v-3.328l4.19,4.19l4.716-4.716
		l4.716,4.716l4.716-4.716l4.716,4.716l4.716-4.716l4.716,4.716l4.716-4.716L64,43.089l4.716-4.716l4.716,4.716l4.716-4.716
		l4.716,4.716l4.716-4.716l4.716,4.716l4.716-4.716l4.716,4.716l4.19-4.19V41.984z M105.917,37.012l-4.19-4.19l-4.716,4.716
		l-4.716-4.716l-4.716,4.716l-4.716-4.716l-4.716,4.716l-4.716-4.716l-4.716,4.716L64,32.822l-4.716,4.716l-4.716-4.716
		l-4.716,4.716l-4.716-4.716l-4.716,4.716l-4.716-4.716l-4.716,4.716l-4.716-4.716l-4.19,4.19v-3.328l4.069-4.069l4.716,4.716
		l4.716-4.716l4.716,4.716l4.716-4.716l4.716,4.716l4.716-4.716l4.716,4.716l4.716-4.716l4.716,4.716l4.716-4.716l4.716,4.716
		l4.716-4.716l4.716,4.716l4.716-4.716l4.716,4.716l4.716-4.716l4.312,4.312V37.012z M105.917,24.468l-4.312,4.312l-4.716-4.716
		l-4.716,4.716l-4.716-4.716l-4.716,4.716l-4.716-4.716L73.31,28.78l-4.716-4.716l-4.716,4.716l-4.716-4.716l-4.716,4.716
		l-4.716-4.716l-4.716,4.716L40.3,24.064l-4.716,4.716l-4.716-4.716l-4.716,4.716l-4.069-4.069v-3.328l4.19,4.19l4.716-4.716
		l4.716,4.716l4.716-4.716l4.716,4.716l4.716-4.716l4.716,4.716l4.716-4.716L64,25.573l4.716-4.716l4.716,4.716l4.716-4.716
		l4.716,4.716l4.716-4.716l4.716,4.716l4.716-4.716l4.716,4.716l4.19-4.19V24.468z M105.917,19.496l-4.19-4.19l-4.716,4.716
		l-4.716-4.716l-4.716,4.716l-4.716-4.716l-4.716,4.716l-4.716-4.716l-4.716,4.716L64,15.306l-4.716,4.716l-4.716-4.716
		l-4.716,4.716l-4.716-4.716l-4.716,4.716l-4.716-4.716l-4.716,4.716l-4.716-4.716l-4.19,4.19v-3.328l4.069-4.069l4.716,4.716
		l4.716-4.716l4.716,4.716l4.716-4.716l4.716,4.716l4.716-4.716l4.716,4.716l4.716-4.716l4.716,4.716l4.716-4.716l4.716,4.716
		l4.716-4.716l4.716,4.716l4.716-4.716l4.716,4.716l4.716-4.716l4.312,4.312V19.496z M105.917,6.952l-4.312,4.312l-4.716-4.716
		l-4.716,4.716l-4.716-4.716l-4.716,4.716l-4.716-4.716l-4.716,4.716l-4.716-4.716l-4.716,4.716l-4.716-4.716l-4.716,4.716
		l-4.716-4.716l-4.716,4.716L40.3,6.548l-4.716,4.716l-4.716-4.716l-4.716,4.716l-4.069-4.069V4.689c0-0.243,0.04-0.472,0.135-0.687
		l4.056,4.056l4.716-4.716l4.716,4.716l4.716-4.716l4.716,4.716l4.716-4.716l4.716,4.716l4.716-4.716L64,8.057l4.716-4.716
		l4.716,4.716l4.716-4.716l4.716,4.716l4.716-4.716l4.716,4.716l4.716-4.716l4.716,4.716l4.056-4.056
		c0.094,0.216,0.135,0.445,0.135,0.687V6.952z"/>
</g>
<g id="Layer_1">
</g>
</svg>
